<?xml version="1.0" encoding="UTF-8" standalone="no"?><svg xmlns="http://www.w3.org/2000/svg" xmlns:xlink="http://www.w3.org/1999/xlink" contentStyleType="text/css" height="511px" preserveAspectRatio="none" style="width:463px;height:511px;background:#FFFFFF;" version="1.1" viewBox="0 0 463 511" width="463px" zoomAndPan="magnify"><defs/><g><!--cluster DeploymentMachine--><g id="cluster_DeploymentMachine"><polygon fill="none" points="16,16,26,6,446,6,446,484,436,494,16,494,16,16" style="stroke:#181818;stroke-width:1.0;"/><line style="stroke:#181818;stroke-width:1.0;" x1="436" x2="446" y1="16" y2="6"/><line style="stroke:#181818;stroke-width:1.0;" x1="16" x2="436" y1="16" y2="16"/><line style="stroke:#181818;stroke-width:1.0;" x1="436" x2="436" y1="16" y2="494"/><text fill="#000000" font-family="sans-serif" font-size="20" font-style="italic" lengthAdjust="spacing" textLength="81" x="186.5" y="38.3359">«device»</text><text fill="#000000" font-family="sans-serif" font-size="20" font-weight="bold" lengthAdjust="spacing" textLength="211" x="121.5" y="61.8906">DeploymentMachine</text></g><!--entity MySQL--><g id="elem_MySQL"><polygon fill="#F1F1F1" points="262.5,411,272.5,401,411.5,401,411.5,468.1094,401.5,478.1094,262.5,478.1094,262.5,411" style="stroke:#181818;stroke-width:0.5;"/><line style="stroke:#181818;stroke-width:0.5;" x1="401.5" x2="411.5" y1="411" y2="401"/><line style="stroke:#181818;stroke-width:0.5;" x1="262.5" x2="401.5" y1="411" y2="411"/><line style="stroke:#181818;stroke-width:0.5;" x1="401.5" x2="401.5" y1="411" y2="478.1094"/><text fill="#000000" font-family="sans-serif" font-size="20" font-style="italic" lengthAdjust="spacing" textLength="109" x="277.5" y="440.3359">«container»</text><text fill="#000000" font-family="sans-serif" font-size="20" lengthAdjust="spacing" textLength="65" x="299.5" y="463.8906">MySQL</text></g><!--entity Adminer--><g id="elem_Adminer"><polygon fill="#F1F1F1" points="276.5,249,286.5,239,425.5,239,425.5,306.1094,415.5,316.1094,276.5,316.1094,276.5,249" style="stroke:#181818;stroke-width:0.5;"/><line style="stroke:#181818;stroke-width:0.5;" x1="415.5" x2="425.5" y1="249" y2="239"/><line style="stroke:#181818;stroke-width:0.5;" x1="276.5" x2="415.5" y1="249" y2="249"/><line style="stroke:#181818;stroke-width:0.5;" x1="415.5" x2="415.5" y1="249" y2="316.1094"/><text fill="#000000" font-family="sans-serif" font-size="20" font-style="italic" lengthAdjust="spacing" textLength="109" x="291.5" y="278.3359">«container»</text><text fill="#000000" font-family="sans-serif" font-size="20" lengthAdjust="spacing" textLength="83" x="304.5" y="301.8906">Adminer</text></g><!--entity Redis--><g id="elem_Redis"><polygon fill="#F1F1F1" points="66.5,411,76.5,401,215.5,401,215.5,468.1094,205.5,478.1094,66.5,478.1094,66.5,411" style="stroke:#181818;stroke-width:0.5;"/><line style="stroke:#181818;stroke-width:0.5;" x1="205.5" x2="215.5" y1="411" y2="401"/><line style="stroke:#181818;stroke-width:0.5;" x1="66.5" x2="205.5" y1="411" y2="411"/><line style="stroke:#181818;stroke-width:0.5;" x1="205.5" x2="205.5" y1="411" y2="478.1094"/><text fill="#000000" font-family="sans-serif" font-size="20" font-style="italic" lengthAdjust="spacing" textLength="109" x="81.5" y="440.3359">«container»</text><text fill="#000000" font-family="sans-serif" font-size="20" lengthAdjust="spacing" textLength="53" x="109.5" y="463.8906">Redis</text></g><!--entity Backend--><g id="elem_Backend"><polygon fill="#F1F1F1" points="47,249,57,239,235,239,235,306.1094,225,316.1094,47,316.1094,47,249" style="stroke:#181818;stroke-width:0.5;"/><line style="stroke:#181818;stroke-width:0.5;" x1="225" x2="235" y1="249" y2="239"/><line style="stroke:#181818;stroke-width:0.5;" x1="47" x2="225" y1="249" y2="249"/><line style="stroke:#181818;stroke-width:0.5;" x1="225" x2="225" y1="249" y2="316.1094"/><text fill="#000000" font-family="sans-serif" font-size="20" font-style="italic" lengthAdjust="spacing" textLength="148" x="62" y="278.3359">«node process»</text><text fill="#000000" font-family="sans-serif" font-size="20" lengthAdjust="spacing" textLength="81" x="95.5" y="301.8906">Backend</text></g><!--entity Frontend--><g id="elem_Frontend"><polygon fill="#F1F1F1" points="32,87,42,77,220,77,220,144.1094,210,154.1094,32,154.1094,32,87" style="stroke:#181818;stroke-width:0.5;"/><line style="stroke:#181818;stroke-width:0.5;" x1="210" x2="220" y1="87" y2="77"/><line style="stroke:#181818;stroke-width:0.5;" x1="32" x2="210" y1="87" y2="87"/><line style="stroke:#181818;stroke-width:0.5;" x1="210" x2="210" y1="87" y2="154.1094"/><text fill="#000000" font-family="sans-serif" font-size="20" font-style="italic" lengthAdjust="spacing" textLength="148" x="47" y="116.3359">«node process»</text><text fill="#000000" font-family="sans-serif" font-size="20" lengthAdjust="spacing" textLength="86" x="78" y="139.8906">Frontend</text></g><!--entity Browser--><g id="elem_Browser"><polygon fill="#F1F1F1" points="296,87,306,77,430,77,430,144.1094,420,154.1094,296,154.1094,296,87" style="stroke:#181818;stroke-width:0.5;"/><line style="stroke:#181818;stroke-width:0.5;" x1="420" x2="430" y1="87" y2="77"/><line style="stroke:#181818;stroke-width:0.5;" x1="296" x2="420" y1="87" y2="87"/><line style="stroke:#181818;stroke-width:0.5;" x1="420" x2="420" y1="87" y2="154.1094"/><text fill="#000000" font-family="sans-serif" font-size="20" font-style="italic" lengthAdjust="spacing" textLength="94" x="311" y="116.3359">«process»</text><text fill="#000000" font-family="sans-serif" font-size="20" lengthAdjust="spacing" textLength="76" x="320" y="139.8906">Browser</text></g><!--link Frontend to Backend--><g id="link_Frontend_Backend"><path d="M129.55,154.42 C131.94,179.83 135.06,213.16 137.44,238.58 " fill="none" id="Frontend-Backend" style="stroke:#181818;stroke-width:1.0;"/><text fill="#000000" font-family="sans-serif" font-size="20" lengthAdjust="spacing" textLength="39" x="136" y="204.3359">http</text><text fill="#000000" font-family="sans-serif" font-size="20" lengthAdjust="spacing" textLength="52" x="80.7289" y="226.9157">5001</text></g><!--link Backend to MySQL--><g id="link_Backend_MySQL"><path d="M187.45,316.42 C218.58,341.83 259.41,375.16 290.54,400.58 " fill="none" id="Backend-MySQL" style="stroke:#181818;stroke-width:1.0;"/><text fill="#000000" font-family="sans-serif" font-size="20" lengthAdjust="spacing" textLength="59" x="251" y="366.3359">tcp/ip</text><text fill="#000000" font-family="sans-serif" font-size="20" lengthAdjust="spacing" textLength="52" x="226.9917" y="388.9157">3306</text></g><!--link Backend to Redis--><g id="link_Backend_Redis"><path d="M141,316.42 C141,341.83 141,375.16 141,400.58 " fill="none" id="Backend-Redis" style="stroke:#181818;stroke-width:1.0;"/><text fill="#000000" font-family="sans-serif" font-size="20" lengthAdjust="spacing" textLength="59" x="142" y="366.3359">tcp/ip</text><text fill="#000000" font-family="sans-serif" font-size="20" lengthAdjust="spacing" textLength="52" x="84.8563" y="388.9157">6379</text></g><!--link Adminer to MySQL--><g id="link_Adminer_MySQL"><path d="M347.68,316.42 C345.46,341.83 342.54,375.16 340.32,400.58 " fill="none" id="Adminer-MySQL" style="stroke:#181818;stroke-width:1.0;"/><text fill="#000000" font-family="sans-serif" font-size="20" lengthAdjust="spacing" textLength="59" x="345" y="366.3359">tcp/ip</text><text fill="#000000" font-family="sans-serif" font-size="20" lengthAdjust="spacing" textLength="52" x="284.7054" y="388.9157">3306</text></g><!--link Frontend to Browser--><g id="link_Frontend_Browser"><path d="M220.35,115.5 C245.52,115.5 272.21,115.5 295.61,115.5 " fill="none" id="Frontend-Browser" style="stroke:#181818;stroke-width:1.0;"/><text fill="#000000" font-family="sans-serif" font-size="20" lengthAdjust="spacing" textLength="39" x="238.5" y="107.8359">http</text><text fill="#000000" font-family="sans-serif" font-size="20" lengthAdjust="spacing" textLength="52" x="228.0599" y="135.5869">3000</text></g><!--link Browser to Adminer--><g id="link_Browser_Adminer"><path d="M360.16,154.42 C358.25,179.83 355.75,213.16 353.84,238.58 " fill="none" id="Browser-Adminer" style="stroke:#181818;stroke-width:1.0;"/><text fill="#000000" font-family="sans-serif" font-size="20" lengthAdjust="spacing" textLength="39" x="358" y="204.3359">http</text><text fill="#000000" font-family="sans-serif" font-size="20" lengthAdjust="spacing" textLength="52" x="298.1489" y="226.9157">8080</text></g><!--SRC=[VP31Ri8m44Jl_egLxr5TebAAKAHMY1CSMhx0iXTXaTYMROeeuj-xIJ1LggQ-sVCyExFnOAoNGJQrKmVKe74dZtLQEPksvWjX8XYpJYCiqTVktA1D6wdsnY8i5Xe_ZSAgWWi3EXstEM_VrwGfSf24XQfYF-ghRjgtKVq3jOcZwfkaZ5QJtbrzS0fZ722hG3_7cRjS5C2VX7ZasNGE-vHyJ-KvBLIMOihxLdD8oZ-OFw1f-Vp2-_13AFVzrwdl5jmfTflv5JaBHOsxrDe88VYzo21s9ecQYHbHj_4twCg-0G00]--></g></svg>